<?xml version="1.0" encoding="UTF-8"?>
<svg id="Layer_2" data-name="Layer 2" xmlns="http://www.w3.org/2000/svg" viewBox="0 0 679.47 153.57">
  <defs>
    <style>
      .cls-1 {
        fill: #ce0e2d;
      }

      .cls-2 {
        fill: #1d1d1b;
      }
    </style>
  </defs>
  <g id="Capa_1" data-name="Capa 1">
    <g>
      <path class="cls-1" d="M7.16,79.71c1.78,34.74,36.27,62.89,79.98,66.07,3.69.26,7.38.35,11.1.25,43.39-1.2,78.77-27.86,83.77-61.05.56-3.75.84-7.59.75-11.46-.16-7.28-1.58-14.29-4.61-20.67-11.2-24.02-38.99-41.82-72.51-44.87-4.38-.43-8.81-.57-13.26-.46-6.02.15-11.87.76-17.52,1.8C47.68,13.84,12.39,34.62,7.63,69.25c-.53,3.63-.48,7.84-.47,10.45ZM95.45,0c52.72,0,95.44,34.37,95.44,76.79s-42.72,76.78-95.44,76.78c-47.57,0-87.04-28.02-94.25-64.66-.73-3.71-1.2-7.95-1.2-12.12C0,41.11,29.75,13.28,65.83,3.77c9.44-2.5,19.28-3.77,29.62-3.77ZM71.07,76.53l-23.68,42.87-23.71-42.87,23.71-42.87,23.68,42.87ZM166.54,76.53l-23.7,42.87-23.71-42.87,23.71-42.87,23.7,42.87ZM118.8,76.53l-23.69,42.87-23.71-42.87,23.71-42.87,23.69,42.87Z"/>
      <g>
        <path class="cls-2" d="M632.95,5.72c-28.04,0-46.59,18.42-46.59,41.11s17.2,41.09,46.59,41.09c26.88,0,45.18-18.4,45.18-41.09s-19.44-41.11-45.18-41.11ZM632.72,73.33c-18.95,0-27.58-11.85-27.58-26.5s9.5-26.51,27.58-26.51c16.59,0,26.66,11.87,26.66,26.51s-9.33,26.5-26.66,26.5ZM422.65,20.77v2.64h26.02v63.4h18.49V23.41h23.16V7.57h-55.35c-8.77,0-12.32,5.92-12.32,13.2ZM315.49,7.67h-2.49c-7.1,0-12.14,3.03-15.14,9.25l-21.8,45.11-21.8-45.11c-3-6.2-7.65-9.25-15.65-9.25h-2.17c-7.95,0-11.34,5.73-11.34,11.81v67.31h16.68V26.96l19.41,40.63c3.52,7.35,6.78,9.54,14.2,9.54h.52c7.83,0,11.56-2.41,14.82-9.21l19.62-40.97v59.83h16.67V19.48c0-6.05-3.44-11.81-11.53-11.81ZM573.76,33.99c0-14.6-12.35-26.42-29.85-26.42h-28.57c-8.75,0-12.3,5.92-12.3,13.22v65.99h15.87v-26.38h16.21l19.36,26.38h21.13l-22.11-27.62c12.81-3.4,20.26-13.38,20.26-25.18ZM518.59,45.28l.04-21.87h27.09c7.96-.01,11.85,4.65,11.85,10.58,0,7.67-4.85,11.29-11.86,11.29h-27.12ZM365.96,55.1h42.4v-15.84h-42.37l-.05-15.85h46.37V7.57h-48.7c-10.49,0-13.51,5.21-13.51,13.22v66.02h63.45v-15.86h-47.62l.03-15.86Z"/>
        <path class="cls-2" d="M473,118.75v-1.16c0-3.27,3.15-5.88,7.06-5.88h30.54v7.04h-14.68v28.19h-8.23v-28.19h-14.69Z"/>
        <path class="cls-2" d="M231.24,139.91h15.52c7,0,12.68-4.75,12.68-10.6s-5.68-10.56-12.68-10.56h-15.52v21.16ZM245.34,146.94h-21.16v-29.36c0-3.26,3.17-5.88,7.07-5.88h14.09c11.67,0,21.13,7.87,21.13,17.61s-9.46,17.63-21.13,17.63Z"/>
        <path class="cls-2" d="M280.65,139.91h25.83v7.03h-32.88v-29.36c0-3.26,3.14-5.88,7.04-5.88h25.83v7.04h-25.83v7.06h23.5v7.04h-23.5v7.06Z"/>
        <rect class="cls-2" x="518.24" y="111.7" width="7.05" height="35.24"/>
        <path class="cls-2" d="M600.78,118.7c-7.01,0-12.7,4.74-12.7,10.59s5.69,10.59,12.7,10.59h10.82v-7.06h-9.39v-7.06h16.45v15.29c0,3.26-3.15,5.89-7.06,5.89h-9.4c-11.69,0-21.17-7.9-21.17-17.65s9.48-17.64,21.17-17.64h16.47l.02,7.04h-17.91Z"/>
        <path class="cls-2" d="M458.66,140.43v-28.76h7.07v29.38c0,3.26-3.17,5.89-7.07,5.89-2.63,0-4.84-1.27-6.13-3l-19.76-25.78v28.79h-7.05v-29.39c0-3.25,3.17-5.88,7.05-5.88,2.67,0,4.82,1.24,6.19,3.03l19.69,25.73Z"/>
        <path class="cls-2" d="M396.3,111.66c3.07,0,5.68,1.63,6.65,3.9l13.35,31.38h-7.67l-2.99-7.06h-18.66l-2.99,7.06h-7.66l13.34-31.38c.98-2.27,3.59-3.9,6.64-3.9ZM402.64,132.82l-6.34-14.94-6.34,14.94h12.68Z"/>
        <path class="cls-2" d="M555.5,111.66c3.06,0,5.68,1.63,6.65,3.9l13.36,31.38h-7.67l-3-7.06h-18.67l-3.01,7.06h-7.66l13.34-31.38c.97-2.27,3.59-3.9,6.65-3.9ZM561.86,132.82l-6.35-14.94-6.33,14.94h12.68Z"/>
        <path class="cls-2" d="M357.12,125.76c7.01,0,12.71,4.72,12.71,10.57s-5.7,10.61-12.71,10.61h-23.79s0-7.05,0-7.05h25.21c2.34,0,4.24-1.6,4.24-3.54s-1.9-3.52-4.24-3.52h-13.61c-7.03,0-12.71-4.71-12.71-10.56s5.69-10.6,12.71-10.6h21.29v7.04h-22.73c-2.34,0-4.24,1.6-4.24,3.55s1.9,3.52,4.24,3.52h13.62Z"/>
        <path class="cls-2" d="M663.23,129.47c0,.21-.24.32-.26.55,0,.03.03.04.03.04,0,6.94-6.74,12.56-15.05,12.56s-15.06-5.62-15.06-12.55c0-.2.25-.33.27-.54,0-.02-.02-.03-.02-.05,0-6.94,6.73-12.54,15.05-12.54s15.04,5.6,15.04,12.54ZM670.35,129.47c0-10.15-9.88-18.37-22.03-18.37s-22.06,8.22-22.06,18.37,9.87,18.37,22.06,18.37,22.03-8.22,22.03-18.37Z"/>
        <path class="cls-2" d="M668.01,102.47v-8.68h3.85c.76,0,1.38.08,1.77.23.4.16.72.44.96.83.23.39.37.83.37,1.32,0,.61-.21,1.12-.6,1.53-.4.44-1.01.71-1.86.83.32.15.53.28.71.43.33.31.64.69.95,1.16l1.5,2.36h-1.44l-1.14-1.81c-.33-.52-.62-.91-.84-1.19-.22-.27-.41-.48-.58-.58-.17-.1-.35-.19-.53-.21-.13-.04-.34-.07-.65-.07h-1.32v3.87h-1.14ZM669.16,97.61h2.47c.53,0,.93-.05,1.25-.17.29-.09.5-.28.67-.51.16-.25.24-.5.24-.77,0-.42-.16-.77-.46-1.02-.29-.27-.76-.4-1.41-.4h-2.75v2.87Z"/>
        <path class="cls-2" d="M663,98.11c0-4.54,3.68-8.25,8.24-8.25h0c4.54,0,8.24,3.71,8.24,8.25h0c0,4.55-3.69,8.24-8.24,8.24h0c-4.56,0-8.24-3.69-8.24-8.24h0ZM664.08,98.11c0,3.96,3.19,7.14,7.16,7.14h0c3.95,0,7.15-3.19,7.15-7.14h0c0-3.95-3.19-7.15-7.15-7.15h0c-3.97,0-7.16,3.2-7.16,7.15h0Z"/>
      </g>
    </g>
  </g>
</svg>