<?xml version="1.0" encoding="UTF-8"?>
<svg id="Layer_2" data-name="Layer 2" xmlns="http://www.w3.org/2000/svg" viewBox="0 0 402.32 89.41">
  <defs>
    <style>
      .cls-1 {
        fill: #0372b9;
      }

      .cls-1, .cls-2, .cls-3, .cls-4, .cls-5, .cls-6, .cls-7 {
        fill-rule: evenodd;
      }

      .cls-2 {
        fill: #6b2b15;
      }

      .cls-3 {
        fill: #009858;
      }

      .cls-4 {
        fill: #9a3487;
      }

      .cls-8 {
        fill: #fff;
      }

      .cls-5, .cls-9 {
        fill: #d70f27;
      }

      .cls-6 {
        fill: #2e2b72;
      }

      .cls-7 {
        fill: #fab60b;
      }
    </style>
  </defs>
  <g id="Capa_1" data-name="Capa 1">
    <g>
      <path class="cls-1" d="M178.8,44.63c0-4.94,4-8.94,8.92-8.94s8.93,4.01,8.93,8.94-4,8.94-8.93,8.94-8.92-4-8.92-8.94"/>
      <path class="cls-3" d="M89.4,44.63c0-4.94,4-8.94,8.93-8.94s8.92,4,8.92,8.94-3.99,8.94-8.92,8.94-8.93-4.01-8.93-8.94"/>
      <path class="cls-4" d="M223.5,44.63c0-4.94,4-8.94,8.93-8.94s8.92,4,8.92,8.94-3.99,8.94-8.92,8.94-8.93-4-8.93-8.94"/>
      <path class="cls-7" d="M44.7,44.63c0-4.94,4-8.94,8.92-8.94s8.93,4,8.93,8.94-3.99,8.94-8.93,8.94-8.92-4.01-8.92-8.94"/>
      <path class="cls-6" d="M134.1,44.63c0-4.94,3.99-8.94,8.92-8.94s8.93,4.01,8.93,8.94-4,8.94-8.93,8.94-8.92-4-8.92-8.94"/>
      <path class="cls-2" d="M268.21,44.63c0-4.94,4-8.94,8.93-8.94s8.92,4,8.92,8.94-3.99,8.94-8.92,8.94-8.93-4.01-8.93-8.94"/>
      <path class="cls-5" d="M0,44.63c0-4.94,3.99-8.94,8.92-8.94s8.93,4,8.93,8.94-4,8.94-8.93,8.94S0,49.57,0,44.63"/>
      <path class="cls-9" d="M402.32,44.7c0,24.69-20.01,44.7-44.7,44.7s-44.7-20.01-44.7-44.7S332.93,0,357.62,0s44.7,20.02,44.7,44.7"/>
      <path class="cls-8" d="M330.77,45.6c.55,10.64,11.1,19.26,24.49,20.23,1.13.08,2.26.11,3.4.08,13.29-.37,24.12-8.53,25.65-18.7.17-1.15.26-2.32.23-3.51-.05-2.23-.48-4.38-1.41-6.33-3.43-7.36-11.94-12.81-22.2-13.74-1.34-.13-2.7-.17-4.06-.14-1.84.04-3.63.23-5.36.55-8.32,1.39-19.13,7.75-20.58,18.36-.16,1.11-.15,2.4-.14,3.2M357.8,21.19c16.14,0,29.23,10.52,29.23,23.51s-13.08,23.51-29.23,23.51c-14.57,0-26.65-8.58-28.86-19.8-.22-1.14-.37-2.43-.37-3.71,0-10.92,9.11-19.45,20.16-22.36,2.89-.77,5.9-1.15,9.07-1.15M350.34,44.63l-7.25,13.13-7.26-13.13,7.26-13.13,7.25,13.13ZM379.57,44.63l-7.26,13.13-7.26-13.13,7.26-13.13,7.26,13.13ZM364.95,44.63l-7.25,13.13-7.26-13.13,7.26-13.13,7.25,13.13Z"/>
    </g>
  </g>
</svg>