<?xml version="1.0" encoding="UTF-8"?>
<svg id="Layer_2" data-name="Layer 2" xmlns="http://www.w3.org/2000/svg" viewBox="0 0 58.46 47.02">
  <defs>
    <style>
      .cls-1 {
        fill: #d70f27;
      }
    </style>
  </defs>
  <g id="Layer_2-2" data-name="Layer 2">
    <g id="Capa_1" data-name="Capa 1">
      <path class="cls-1" d="M2.2,24.41c.55,10.64,11.1,19.26,24.49,20.23,1.13.08,2.26.11,3.4.08,13.29-.37,24.12-8.53,25.65-18.7.17-1.15.26-2.32.23-3.51-.05-2.23-.48-4.38-1.41-6.33-3.43-7.36-11.94-12.81-22.2-13.74-1.34-.13-2.7-.17-4.06-.14-1.84.04-3.63.23-5.36.55C14.62,4.24,3.81,10.6,2.36,21.21c-.16,1.11-.15,2.4-.14,3.2M29.23,0c16.14,0,29.23,10.52,29.23,23.51s-13.08,23.51-29.23,23.51C14.66,47.02,2.58,38.44.37,27.22c-.22-1.14-.37-2.43-.37-3.71C0,12.59,9.11,4.06,20.16,1.15c2.89-.77,5.9-1.15,9.07-1.15M21.77,23.44l-7.25,13.13-7.26-13.13,7.26-13.13,7.25,13.13ZM51,23.44l-7.26,13.13-7.26-13.13,7.26-13.13,7.26,13.13ZM36.38,23.44l-7.25,13.13-7.26-13.13,7.26-13.13,7.25,13.13Z"/>
    </g>
  </g>
</svg>