<?xml version="1.0" encoding="UTF-8"?>
<svg id="Layer_2" data-name="Layer 2" xmlns="http://www.w3.org/2000/svg" viewBox="0 0 391.33 352.09">
  <defs>
    <style>
      .cls-1 {
        fill: #fff;
      }
    </style>
  </defs>
  <g id="Capa_1" data-name="Capa 1">
    <g>
      <path class="cls-1" d="M226.61,101.47l-31.41,56.85-31.42-56.85,31.42-56.83,31.41,56.83ZM289.92,101.47l-31.42,56.85-31.44-56.85,31.44-56.83,31.42,56.83ZM163.33,101.47l-31.4,56.85-31.44-56.85,31.44-56.83,31.4,56.83ZM195.64,0c69.91,0,126.57,45.58,126.57,101.82s-56.66,101.8-126.57,101.8c-63.06,0-115.39-37.14-124.96-85.74-.98-4.94-1.59-10.53-1.59-16.07,0-47.32,39.44-84.2,87.29-96.81,12.53-3.31,25.57-5,39.26-5M78.59,105.69c2.35,46.06,48.09,83.38,106.06,87.62,4.88.34,9.78.46,14.71.33,57.53-1.58,104.45-36.94,111.08-80.96.75-4.97,1.11-10.07,1.01-15.21-.21-9.64-2.11-18.94-6.13-27.41-14.86-31.85-51.7-55.46-96.15-59.5-5.8-.56-11.68-.74-17.6-.61-7.97.19-15.72,1-23.22,2.39-36.03,6.02-82.85,33.57-89.14,79.5-.69,4.8-.63,10.39-.62,13.86"/>
      <path class="cls-1" d="M122.49,275.01h36.63v-13.67h-36.62l-.03-13.71h40.06v-13.69h-42.08c-9.08,0-11.67,4.51-11.67,11.43v57.04h54.83v-13.7h-41.14l.02-13.71ZM254.37,266.53l.02-18.9h23.41c6.88,0,10.25,4.03,10.25,9.14,0,6.63-4.2,9.76-10.25,9.76h-23.43ZM302.03,256.77c0-12.61-10.66-22.83-25.78-22.83h-24.7c-7.57,0-10.62,5.11-10.62,11.43v57.01h13.71v-22.79h14.01l16.73,22.79h18.24l-19.09-23.86c11.07-2.93,17.5-11.55,17.5-21.76M78.89,234.04h-2.16c-6.12,0-10.48,2.61-13.07,7.98l-18.84,38.97-18.84-38.97c-2.58-5.35-6.61-7.98-13.51-7.98h-1.89c-6.86,0-9.79,4.94-9.79,10.2v58.15h14.41v-51.69l16.78,35.1c3.04,6.35,5.85,8.25,12.27,8.25h.46c6.76,0,9.99-2.08,12.8-7.95l16.94-35.4v51.69h14.41v-58.15c0-5.23-2.97-10.2-9.96-10.2M171.47,245.36v2.27h22.48v54.79h15.98v-54.79h20.01v-13.69h-47.82c-7.58,0-10.65,5.11-10.65,11.41"/>
      <path class="cls-1" d="M18.28,351.12H0v-25.37c0-2.81,2.74-5.08,6.11-5.08h12.17c10.08,0,18.24,6.8,18.24,15.21s-8.16,15.25-18.24,15.25M6.1,345.03h13.4c6.05,0,10.97-4.12,10.97-9.16s-4.91-9.12-10.97-9.12H6.1v18.28Z"/>
      <rect class="cls-1" x="255.57" y="320.67" width="6.09" height="30.45"/>
      <path class="cls-1" d="M326.76,326.71c-6.06,0-10.98,4.1-10.98,9.15s4.92,9.15,10.98,9.15h9.35v-6.1h-8.11v-6.1h14.22v13.21c0,2.83-2.72,5.11-6.11,5.11h-8.13c-10.09,0-18.28-6.84-18.28-15.26s8.19-15.24,18.28-15.24h14.24l.02,6.09h-15.47Z"/>
      <path class="cls-1" d="M207.12,345.48v-24.86h6.11v25.39c0,2.82-2.73,5.1-6.11,5.1-2.26,0-4.18-1.11-5.29-2.6l-17.07-22.28v24.88h-6.08v-25.4c0-2.81,2.72-5.09,6.08-5.09,2.32,0,4.18,1.07,5.36,2.63l17.01,22.23Z"/>
      <path class="cls-1" d="M157.21,338.91l-5.48-12.9-5.48,12.9h10.96ZM151.73,320.62c2.65,0,4.91,1.41,5.75,3.37l11.53,27.13h-6.64l-2.58-6.11h-16.12l-2.59,6.11h-6.62l11.52-27.13c.85-1.96,3.11-3.37,5.74-3.37"/>
      <path class="cls-1" d="M293.26,338.91l-5.48-12.9-5.47,12.9h10.95ZM287.78,320.62c2.64,0,4.9,1.41,5.74,3.37l11.53,27.13h-6.62l-2.59-6.11h-16.13l-2.59,6.11h-6.63l11.52-27.13c.85-1.96,3.11-3.37,5.75-3.37"/>
      <path class="cls-1" d="M117.88,332.81c6.08,0,10.98,4.09,10.98,9.13s-4.91,9.17-10.98,9.17h-20.54s0-6.1,0-6.1h21.78c2.02,0,3.66-1.38,3.66-3.05s-1.64-3.05-3.66-3.05h-11.76c-6.06,0-10.98-4.07-10.98-9.12s4.92-9.16,10.98-9.16h18.41v6.08h-19.65c-2.02,0-3.65,1.38-3.65,3.06s1.63,3.04,3.65,3.04h11.77Z"/>
      <path class="cls-1" d="M49.85,338.94h16.3v-6.08h-16.27l-.03-6.09h17.82v-6.09h-18.72c-4.03,0-5.17,2-5.17,5.08v25.36h24.37v-6.09h-18.3v-6.09Z"/>
      <path class="cls-1" d="M221.34,325.75v1.01h9.98v24.34h7.11v-24.34h8.89v-6.08h-21.25c-3.37,0-4.74,2.28-4.74,5.08"/>
      <path class="cls-1" d="M385.54,336.09c0,8.83-7.13,16-17.6,16-11.44,0-18.14-7.17-18.14-16s7.23-16.01,18.14-16.01c10.02,0,17.6,7.18,17.6,16.01M378.22,336.09c0-5.7-3.92-10.32-10.38-10.32-7.04,0-10.74,4.62-10.74,10.32s3.36,10.32,10.74,10.32c6.74,0,10.38-4.62,10.38-10.32"/>
      <path class="cls-1" d="M352.3,232.57c-24.23,0-40.25,15.92-40.25,35.52s14.86,35.5,40.25,35.5c23.22,0,39.03-15.9,39.03-35.5s-16.8-35.52-39.03-35.52M352.11,290.98c-16.38,0-23.85-10.23-23.85-22.89s8.21-22.91,23.85-22.91c14.33,0,23.03,10.26,23.03,22.91s-8.07,22.89-23.03,22.89"/>
    </g>
  </g>
</svg>